<svg width="251" height="204" viewBox="0 0 251 204" fill="none" xmlns="http://www.w3.org/2000/svg">
<path d="M132.377 13.4629C146 2.70965 160.163 -0.759947 173.748 0.889648C187.347 2.54095 200.408 9.32768 211.791 19.1553C234.571 38.8234 250.5 70.562 250.5 97.2207C250.5 123.884 234.371 157.458 212.416 179.674C201.444 190.776 189.055 199.001 176.554 202.124C164.075 205.241 151.463 203.282 139.962 193.98C128.268 184.523 112.557 177.147 95.9307 170.548C87.6137 167.247 79.0552 164.136 70.6455 161.057C62.2328 157.976 53.9682 154.927 46.2266 151.746C30.727 145.377 17.3957 138.504 9.18848 129.854C5.09308 125.538 2.28675 120.793 1.11523 115.458C-0.0559303 110.125 0.397746 104.161 2.88672 97.3926C7.88797 83.7928 15.023 74.4758 23.7598 67.4648C32.5068 60.4456 42.8788 55.7221 54.3838 51.3369C77.3712 42.5752 104.854 35.1885 132.377 13.4629Z" stroke="#2BBD13"/>
</svg>
